<svg xmlns="http://www.w3.org/2000/svg" viewBox="0 0 1400 420" role="img" aria-label="AgenticData terminal pane (Agentra variant)">
  <defs>
    <pattern id="grid" width="20" height="20" patternUnits="userSpaceOnUse">
      <circle cx="2" cy="2" r="1" fill="#b8b6ae"/>
    </pattern>
  </defs>
  <rect width="1400" height="420" fill="#f2f1ea"/>
  <rect width="1400" height="420" fill="url(#grid)"/>
  <rect x="20" y="20" width="1360" height="380" fill="none" stroke="#111111" stroke-width="2"/>
  <line x1="20" y1="62" x2="1380" y2="62" stroke="#111111" stroke-width="2"/>
  <text x="40" y="48" font-family="'JetBrains Mono', monospace" font-size="14" fill="#5f5c53" letter-spacing="2"> // TERMINAL: AGENTRA_VARIANT</text>
  <rect x="1318" y="36" width="8" height="8" fill="#ea580c"/>
  <text x="1336" y="48" font-family="'JetBrains Mono', monospace" font-size="12" fill="#5f5c53" letter-spacing="2">005</text>

  <rect x="46" y="92" width="1308" height="280" fill="none" stroke="#111111" stroke-width="2"/>
  <rect x="46" y="92" width="1308" height="40" fill="#111111"/>
  <circle cx="68" cy="112" r="6" fill="#ef4444"/>
  <circle cx="90" cy="112" r="6" fill="#f59e0b"/>
  <circle cx="112" cy="112" r="6" fill="#22c55e"/>
  <text x="1220" y="117" font-family="'JetBrains Mono', monospace" font-size="11" fill="#f2f1ea" letter-spacing="2">AGENTICDATA / AGENTRA</text>

  <rect x="46" y="132" width="1308" height="240" fill="#080808"/>
  <text x="72" y="168" font-family="'JetBrains Mono', monospace" font-size="18" fill="#e5e5e5">&gt; adat ingest quarterly_report.pdf</text>
  <text x="72" y="192" font-family="'JetBrains Mono', monospace" font-size="18" fill="#5f5c53">  Parsed: 12 tables, 45 headings, 3 charts  |  Schema: 28 fields</text>
  <text x="72" y="226" font-family="'JetBrains Mono', monospace" font-size="18" fill="#e5e5e5">&gt; adat quality quarterly_report</text>
  <text x="72" y="250" font-family="'JetBrains Mono', monospace" font-size="18" fill="#5f5c53">  Score: 91/100  |  Completeness: 97%  |  Anomalies: 0</text>
  <text x="72" y="284" font-family="'JetBrains Mono', monospace" font-size="18" fill="#e5e5e5">&gt; agentic-data-mcp</text>
  <text x="72" y="308" font-family="'JetBrains Mono', monospace" font-size="18" fill="#5f5c53">  122 tools registered across 24 inventions</text>
  <text x="72" y="342" font-family="'JetBrains Mono', monospace" font-size="18" fill="#ea580c">&gt; data.status = COMPREHENDING</text>
  <text x="72" y="362" font-family="'JetBrains Mono', monospace" font-size="18" fill="#ea580c">_</text>
</svg>
